<?xml version="1.0" encoding="UTF-8"?>
<svg width="1920" height="1920" version="1.1" viewBox="0 0 508.00001 507.99999" xmlns="http://www.w3.org/2000/svg">
 <g transform="translate(0 211)">
  <path d="m407.95-170.08c-12.195 0-22.013 9.8182-22.013 22.013v28.933c0 12.195 9.8182 22.011 22.013 22.011h28.93c12.196 0 22.013-9.8156 22.013-22.011v-28.933c0-12.195-9.8177-22.013-22.013-22.013zm2.4533 6.1892h24.023c10.126 0 18.277 8.1512 18.277 18.278v24.023c0 10.126-8.1511 18.28-18.277 18.28h-24.023c-10.126 0-18.277-8.1538-18.277-18.28v-24.023c0-10.126 8.1511-18.278 18.277-18.278zm31.227 6.5139a4.8855 4.8855 0 0 0 -4.8842 4.8843 4.8855 4.8855 0 0 0 4.8842 4.8868 4.8855 4.8855 0 0 0 4.8872 -4.8868 4.8855 4.8855 0 0 0 -4.8872 -4.8843zm-18.89 4.2344a19.216 19.216 0 0 0 -19.217 19.217 19.216 19.216 0 0 0 19.217 19.215 19.216 19.216 0 0 0 19.217 -19.215 19.216 19.216 0 0 0 -19.217 -19.217zm0 8.1413a11.074 11.074 0 0 1 11.073 11.076 11.074 11.074 0 0 1 -11.073 11.073 11.074 11.074 0 0 1 -11.073 -11.073 11.074 11.074 0 0 1 11.073 -11.076z"/>
  <path d="m264.79-158.89c-0.54242-0.0127-1.0858 0.01-1.6253 0.0682-2.1578 0.23439-4.25 1.043-6.0077 2.3164s-3.1772 3.0087-4.0822 4.9815c-1.1188 2.4388-1.4391 5.1655-1.5384 7.8468-6e-3 0.16872-6e-3 0.33781-0.0119 0.50661-10.061-0.91653-18.683-6.7285-26.715-14.543-0.97241 6.1127-3.5592 12.136 4.9516 18.775-2.2695-0.73896-4.5393-1.0652-6.8088-3.095-0.49202 9.9478 6.1737 11.618 11.76 14.959-2.5377-0.0341-5.038 0.11764-7.8401-1.2383 0.1357 3.5456 5.7423 7.5315 11.796 11.366-5.7839 3.2125-12.874 4.0306-19.224 2.1483 7.8664 4.6178 17.092 6.8874 26.203 6.4472 4.1414-0.20015 8.2771-0.95441 12.129-2.489 3.8517-1.5347 7.4157-3.8675 10.167-6.9696 4.1801-4.7138 6.2707-10.897 7.8271-17.002 0.80997-3.1771 1.5071-6.4158 1.4877-9.6945-4e-3 -0.35277-0.0153-0.70652-0.0356-1.06l6.9036-6.1634-7.7368 0.61888 4.3327-5.0548-6.2717 2.2668c-1.265-1.7081-2.9787-3.0807-4.9234-3.939-1.4892-0.65727-3.1093-1.0135-4.7367-1.0516z"/>
  <path d="m403.63-32.238a35.7 35.7 0 0 0 -35.701 35.701 35.7 35.7 0 0 0 35.701 35.701 35.7 35.7 0 0 0 35.697 -35.701 35.7 35.7 0 0 0 -0.33418 -4.5297h-36.358v13.507h19.024a20.165 20.165 0 0 1 -18.029 11.188 20.165 20.165 0 0 1 -20.165 -20.165 20.165 20.165 0 0 1 20.165 -20.165 20.165 20.165 0 0 1 12.221 4.1561l12.157-10.036a35.7 35.7 0 0 0 -24.378 -9.6566zm52.405 20.89v9.225h-9.2246v11.65h9.2246v9.2247h11.65v-9.2247h9.2209v-11.65h-9.2209v-9.225z"/>
  <path d="m253.24 187.22c-0.0662-1e-4 -0.13248 0-0.19862 4e-3 -0.97684 0.0387-1.9456 0.37322-2.8506 1.0555-2.3884 2.2505-1.5974 12.475-4.4505 17.86-1.3255 2.5018-3.6964 3.8689-6.1084 4.7818v42.232h35.305c2.9641 0 5.3501-2.386 5.3501-5.3502 0-1.7571-0.84197-3.3066-2.1424-4.2808h0.53751c2.9642 0 5.3501-2.386 5.3501-5.3502 0-1.9279-1.0125-3.6063-2.5338-4.5478h1.1968c2.9641 0 5.3501-2.386 5.3501-5.3501 0-2.1273-1.2322-3.9518-3.0217-4.8155h2.2193c2.9641 0 5.3501-2.3867 5.3501-5.3508s-2.386-5.3501-5.3501-5.3501h-24.548c-0.22913-4.3991-0.51104-8.8506-0.99999-13.509-0.0334-6.689-4.2839-12.023-8.4543-12.028z"/>
  <path transform="matrix(.26458 0 0 .26458 0 -211)" d="m801.26 1592.5v173.91h80.379v-173.91h-80.379zm49.617 122.65a18.178 18.178 0 0 1 18.178 18.178 18.178 18.178 0 0 1 -18.178 18.178 18.178 18.178 0 0 1 -18.178 -18.178 18.178 18.178 0 0 1 18.178 -18.178z"/>
  <path d="m252.65-48.948c-6.3549-0.10266-12.71 1.6234-19.064 6.9115-6.3107 5.5024-8.216 12.258-7.4986 21.08 2.0346 10.889 5.4437 10.354 8.7719 11.743 3.3966-1.086 3.9306-5.1527 2.688-6.9325 0 0-4.5109-3.5796-4.4748-10.456 3.412-9.3742 8.9004-17.744 23.999-16.9 27.898 7.5197 8.9372 49.259-6.5502 31.093l1.1738-4.4445c0.62372-3.9691 8.2938-11.217 2.0926-15.347-14.384-7.4871-10.942 14.986-10.942 14.986l-5.8645 23.422 0.99032 12.309 7.074-10.187 3.2584-12.34c1.1081 0.98494 2.2944 1.7758 3.5326 2.4361 20.56 4.7841 30.864-14.438 25.325-31.833-3.4167-7.7393-10.873-14.954-24.511-15.542z"/>
  <path d="m42.209-52.862c-5.0437-1.19e-4 -9.1326 4.0882-9.1331 9.1319-1.64e-4 5.0441 4.089 9.1333 9.1331 9.1332 5.0437-6.57e-4 9.132-4.0895 9.1319-9.1332 0-5.0432-4.0887-9.1313-9.1319-9.1319zm44.359 20.872c-5.1842 0.0073-9.9073 2.3709-13.047 6.169v-5.517h-16.961v46.317h16.961v-14.841c0.04684-7.2273-1.5669-18.052 7.4443-19.483 9.186 0.77754 6.8943 9.4198 6.8943 18.534v15.79h16.961v-30.11s-4e-3 1.92e-4 -4e-3 -0.0073c-0.0573-9.3182-8.9182-16.855-18.25-16.855zm-52.188 0.65457v46.317h16.961v-46.317z"/>
  <path d="m67.251 68.202c-0.97685 0.03863-1.9456 0.37331-2.8506 1.0556-2.3884 2.2505-1.5974 12.475-4.4505 17.86-1.5724 2.9679-4.6159 4.3414-7.4539 5.2507v-1.0402h-21.401v46.013h21.401v-3.2105h36.65c2.9642 0 5.3502-2.3861 5.3502-5.3502 0-1.7571-0.8421-3.3064-2.1426-4.2807h0.53763c2.9642 0 5.3502-2.3861 5.3502-5.3502 0-1.9279-1.0125-3.6063-2.5338-4.5477h1.1967c2.9641 0 5.3501-2.3861 5.3501-5.3502 0-2.1272-1.2322-3.9517-3.0217-4.8155h2.2193c2.9642 0 5.3502-2.3868 5.3502-5.3509s-2.386-5.3502-5.3502-5.3502h-24.548c-0.22914-4.3991-0.51096-8.8505-0.99992-13.509-0.03397-6.7952-4.42-12.192-8.6529-12.024z"/>
  <path d="m40.075 189.63c-1.4905-0.0153-2.9576 0.0366-4.4009 0.15034v12.248c1.691-0.20907 3.4246-0.31184 5.2001-0.29345 0.61992 6e-3 1.2445 0.0268 1.8742 0.0621 26.692-0.78412 50.328 24.498 47.715 51.077-0.0507 2.4103-0.32245 4.7516-0.78585 7.0185h12.156c0.28711-1.9772 0.45899-3.9963 0.50228-6.0553 3.2801-33.37-26.395-65.112-59.908-64.127-0.79055-0.0446-1.5748-0.0711-2.3529-0.0792zm1.6859 25.523c-2.1134-0.0218-4.1441 0.19254-6.0868 0.60944v12.809c2.1001-0.86583 4.4059-1.3408 6.8862-1.3152 0.28591 4e-3 0.57469 0.0124 0.86503 0.0288 12.31-0.36167 23.21 11.298 22.005 23.556-0.07013 3.3325-1.0421 6.3842-2.6465 9.0501h13.146c0.83019-2.5477 1.3131-5.2514 1.3728-8.087 1.8723-19.049-15.068-37.17-34.199-36.607-0.4513-0.0255-0.89878-0.0395-1.343-0.0441zm1.3178 25.143c-7.031 0.25311-10.409 10.522-5.2812 15.241 4.7677 5.1879 14.701 1.2481 14.848-5.7331 0.48591-4.9436-3.9108-9.6461-8.8755-9.5002-0.2342-0.0131-0.46444-0.0153-0.69133-7e-3z"/>
  <path d="m90.836-173.8c-4.2729 0.88131-19.384-1.5611-25.762 8.4261-1.998 3.1284-2.7862 4.9564-3.612 8.2481-0.10944 0.67151-0.20151 1.3614-0.27954 2.0581v11.862h-14.121v14.12h14.121v35.773h14.121v-35.773h15.062v-14.12h-15.062v-7.0547c0.25338-11.218 7.723-9.7486 15.533-10.214z"/>
  <path d="m396.31 73.903c-8.641 0-15.598 6.9567-15.598 15.598v30.517c0 8.6411 6.9567 15.598 15.598 15.598h52.218c8.641 0 15.598-6.9566 15.598-15.598v-30.517c0-8.641-6.9567-15.598-15.598-15.598zm16.416 17.343 11.996 6.927 11.996 6.925-11.996 6.925-11.996 6.927v-13.852z"/>
  <path d="m213.72 93.694 4.7384 7.446c4.5292-5.2445 6.1751-6.1042 7.8972-4.2871 6.0913 3.3842 12.894 48.284 20.759 47.158 6.7199-2.1433 14.794-5.1653 23.68-14.658 8.8864-9.493 19.939-26.134 19.98-35.207 0.50611-6.3935 1.4452-18.448-12.861-18.615-12.366-1.0128-19.862 8.3085-21.097 19.63 6.0145-1.6924 8.5491-2.3174 10.943 0.22548 3.4844 3.99-8.4648 25.384-11.62 22.225-4.6814-4.7964-4.3818-13.895-9.0255-34.184-1.3988-2.783-3.7996-8.3584-10.154-6.7691-7.3427 2.0254-15.754 11.103-23.241 17.036z"/>
  <path d="m423.33 185.4c-20.053 1e-4 -36.42 16.367-36.42 36.42 0 6.6745 1.8221 12.935 4.9809 18.326l-6.5709 19.116 21.331-5.094c5.0037 2.5953 10.673 4.0712 16.679 4.0712 20.053 0 36.413-16.366 36.413-36.418 0-20.053-16.361-36.42-36.413-36.42zm0 10.221c14.531 0 26.199 11.668 26.199 26.199s-11.668 26.205-26.199 26.205c-4.3158 0-8.3751-1.0368-11.956-2.8655l-16.262 3.8833 5.0991-14.833c-1.9693-3.6845-3.0868-7.9001-3.0868-12.39 0-14.531 11.675-26.199 26.205-26.199zm-11.69 9.7757c-0.71349 3e-3 -1.43 0.26357-2.4116 1.0827-0.98162 0.81923-2.2334 2.1984-2.9818 4.0297-0.74878 1.8311-0.99848 4.1673-0.16131 7.0299 0.83714 2.8627 2.7693 6.2942 4.5985 8.6181 0.41267 0.52426 0.82037 0.98357 1.2224 1.3887l-0.0193 0.0226c2.2234 2.2904 4.6367 4.265 7.1231 6.1003 0.58392 0.48716 1.2921 0.96474 2.1304 1.4353 2.579 1.4478 6.2675 2.827 9.2252 3.2114 2.9577 0.3843 5.2253-0.22593 6.9185-1.249 1.6932-1.0228 2.8648-2.4708 3.5224-3.5673 0.65753-1.0965 0.80148-1.844 0.69519-2.5495-0.0795-0.52964-0.29868-1.0423-1.0211-1.6316-0.24046-0.19664-0.53701-0.4003-0.90305-0.61702-1.4636-0.86726-4.0422-1.9284-5.5914-2.4613-1.5492-0.53278-2.0782-0.54215-2.8538-6e-3 -0.77553 0.53814-1.8259 1.6529-2.5545 2.2884-0.72863 0.63532-1.2327 0.86649-2.2784 0.2478-0.39179-0.23171-0.87812-0.58939-1.3738-0.96959-0.44705-0.34836-0.89531-0.70214-1.3455-1.0611-0.14189-0.11489-0.28479-0.22656-0.41237-0.32926-1.1974-0.96323-2.4103-1.9791-3.6472-3.0818-0.0393-0.0376-0.0576-0.0589-0.10141-0.0998-0.27771-0.26101-0.71348-0.65479-1.1192-1.0227-0.28864-0.2681-0.57459-0.52394-0.86647-0.80333-0.49909-0.47128-0.97626-0.94073-1.2922-1.3238-0.77287-0.93734-0.62125-1.4717-0.10656-2.29 0.51489-0.81818 1.4513-2.0276 1.8627-2.8772 0.41178-0.84943 0.32236-1.3724-0.44405-2.8206-0.76605-1.4482-2.2115-3.8286-3.2945-5.1406-0.27067-0.32837-0.51899-0.59063-0.75013-0.7983-0.69396-0.621-1.2325-0.76039-1.7678-0.75676z" color="#000000" color-rendering="auto" dominant-baseline="auto" image-rendering="auto" shape-rendering="auto" solid-color="#000000" style="font-feature-settings:normal;font-variant-alternates:normal;font-variant-caps:normal;font-variant-ligatures:normal;font-variant-numeric:normal;font-variant-position:normal;isolation:auto;mix-blend-mode:normal;shape-padding:0;text-decoration-color:#000000;text-decoration-line:none;text-decoration-style:solid;text-indent:0;text-orientation:mixed;text-transform:none;white-space:normal"/>
  <ellipse cx="322.64" cy="-94.335" r="15.203" opacity=".46"/>
 </g>
</svg>
